<svg width="100%" viewBox="0 0 120 120" version="1.1" xmlns="http://www.w3.org/2000/svg">
    <g stroke="none" stroke-width="1" fill="none" fill-rule="evenodd">
        <g transform="translate(-470.000000, -470.000000)">
            <g transform="translate(472.000000, 472.000000)">
                <rect stroke="#FFB4A3" stroke-width="4" stroke-dasharray="10" x="0" y="0" width="116" height="116" rx="8"></rect>
                <path d="M62,54 L62,38.0049233 C62,36.8988551 61.1054196,36 60.0018986,36 L55.9981014,36 C54.8867064,36 54,36.8976348 54,38.0049233 L54,54 L38.0049233,54 C36.8988551,54 36,54.8945804 36,55.9981014 L36,60.0018986 C36,61.1132936 36.8976348,62 38.0049233,62 L54,62 L54,77.9950767 C54,79.1011449 54.8945804,80 55.9981014,80 L60.0018986,80 C61.1132936,80 62,79.1023652 62,77.9950767 L62,62 L77.9950767,62 C79.1011449,62 80,61.1054196 80,60.0018986 L80,55.9981014 C80,54.8867064 79.1023652,54 77.9950767,54 L62,54 Z" fill="#FFB4A3"></path>
            </g>
        </g>
    </g>
</svg>