<svg version="1.1" id="Layer_1" xmlns="http://www.w3.org/2000/svg" width="100%" viewBox="0 0 32 32">
<g>
	<path fill="none" d="M24.489,7.51c-1.07-1.069-2.347-1.921-3.828-2.557S17.625,4,16,4c-1.625,0-3.179,0.318-4.661,0.953
		S8.581,6.44,7.511,7.51c-1.07,1.069-1.922,2.346-2.557,3.828c-0.635,1.483-0.953,3.037-0.953,4.661
		c0,1.624,0.317,3.179,0.953,4.661c0.636,1.482,1.488,2.758,2.557,3.828c1.069,1.068,2.345,1.922,3.828,2.557
		s3.037,0.953,4.661,0.953s3.178-0.318,4.661-0.953s2.759-1.488,3.828-2.557c1.068-1.07,1.921-2.346,2.557-3.828
		s0.954-3.037,0.953-4.661c-0.001-1.625-0.318-3.178-0.953-4.661C26.411,9.855,25.559,8.579,24.489,7.51z M17.088,22.184h-2.744
		V19.81h2.744V22.184z M20.296,14.717c-0.342,0.467-1.072,1.104-2.192,1.908c-0.579,0.417-0.939,0.752-1.079,1.006
		c-0.14,0.253-0.203,0.707-0.19,1.359h-2.49c-0.006-0.31-0.01-0.498-0.01-0.565c0-0.698,0.133-1.272,0.4-1.724
		c0.267-0.45,0.801-0.957,1.602-1.52c0.801-0.563,1.279-0.933,1.436-1.107c0.241-0.276,0.361-0.58,0.361-0.913
		c0-0.461-0.213-0.857-0.64-1.187c-0.427-0.33-1.001-0.494-1.724-0.494c-0.697,0-1.279,0.172-1.748,0.515
		c-0.469,0.344-0.791,0.867-0.967,1.571l-2.52-0.271c0.072-1.008,0.568-1.864,1.489-2.568s2.13-1.056,3.628-1.056
		c1.575,0,2.829,0.356,3.76,1.068s1.396,1.542,1.396,2.488C20.809,13.753,20.638,14.249,20.296,14.717z"/>
	<path d="M29.505,10.296c-0.774-1.809-1.815-3.368-3.125-4.677c-1.31-1.31-2.868-2.351-4.677-3.125
		C19.895,1.72,17.993,1.333,16,1.333s-3.895,0.387-5.703,1.161C8.488,3.268,6.929,4.31,5.62,5.619
		c-1.31,1.309-2.351,2.868-3.125,4.677s-1.161,3.71-1.161,5.703s0.387,3.895,1.161,5.703s1.815,3.368,3.125,4.677
		c1.309,1.31,2.868,2.352,4.677,3.125s3.71,1.161,5.703,1.161s3.895-0.388,5.703-1.161s3.367-1.815,4.677-3.125
		c1.31-1.309,2.351-2.868,3.125-4.677s1.161-3.71,1.161-5.703S30.279,12.104,29.505,10.296z M27.046,20.66
		c-0.636,1.482-1.488,2.758-2.557,3.828c-1.069,1.068-2.345,1.922-3.828,2.557S17.624,27.998,16,27.998s-3.178-0.318-4.661-0.953
		s-2.759-1.488-3.828-2.557c-1.068-1.07-1.921-2.346-2.557-3.828C4.318,19.178,4,17.623,4.001,15.999
		c0-1.625,0.318-3.178,0.953-4.661C5.589,9.855,6.441,8.579,7.511,7.51c1.07-1.069,2.346-1.921,3.828-2.557S14.375,4,16,4
		c1.625,0,3.18,0.318,4.661,0.953s2.758,1.487,3.828,2.557c1.069,1.069,1.922,2.346,2.557,3.828
		c0.635,1.483,0.952,3.037,0.953,4.661C28,17.623,27.682,19.178,27.046,20.66z"/>
	<path d="M19.412,10.742c-0.931-0.712-2.185-1.068-3.76-1.068c-1.498,0-2.707,0.352-3.628,1.056s-1.417,1.56-1.489,2.568l2.52,0.271
		c0.176-0.704,0.498-1.228,0.967-1.571c0.469-0.343,1.051-0.515,1.748-0.515c0.723,0,1.297,0.165,1.724,0.494
		c0.427,0.329,0.64,0.725,0.64,1.187c0,0.333-0.12,0.637-0.361,0.913c-0.156,0.174-0.635,0.543-1.436,1.107
		c-0.801,0.563-1.334,1.069-1.602,1.52c-0.267,0.451-0.4,1.025-0.4,1.724c0,0.067,0.003,0.256,0.01,0.565h2.49
		c-0.013-0.652,0.051-1.106,0.19-1.359c0.14-0.254,0.5-0.589,1.079-1.006c1.12-0.805,1.851-1.441,2.192-1.908
		c0.342-0.468,0.513-0.963,0.513-1.487C20.809,12.284,20.343,11.455,19.412,10.742z"/>
	<rect x="14.344" y="19.81" width="2.744" height="2.374"/>
</g>
</svg>
