<svg width="100%" viewBox="0 0 40 40" version="1.1" xmlns="http://www.w3.org/2000/svg" >
    <g id="Page-1" stroke="none" stroke-width="1" fill="none" fill-rule="evenodd">
        <g id="достижения" transform="translate(-570.000000, -70.000000)" fill="#FFFFFF">
            <g id="Shape-8" transform="translate(570.000000, 70.000000)">
                <path d="M35.6982347,38.5874796 C34.9181212,39.3675931 33.6534421,39.3677278 32.8768484,38.5911341 L21.4088659,27.1231516 C20.6307707,26.3450564 19.3677278,26.3465579 18.5911341,27.1231516 L7.12315158,38.5911341 C6.34505645,39.3692293 5.08092403,39.3666383 4.30176531,38.5874796 L1.41252041,35.6982347 C0.632406928,34.9181212 0.632272235,33.6534421 1.40886586,32.8768484 L12.8768484,21.4088659 C13.6549436,20.6307707 13.6534421,19.3677278 12.8768484,18.5911341 L1.40886586,7.12315158 C0.630770732,6.34505645 0.63336168,5.08092403 1.41252041,4.30176531 L4.30176531,1.41252041 C5.08187879,0.632406928 6.34655795,0.632272235 7.12315158,1.40886586 L18.5911341,12.8768484 C19.3692293,13.6549436 20.6322722,13.6534421 21.4088659,12.8768484 L32.8768484,1.40886586 C33.6549436,0.630770732 34.919076,0.63336168 35.6982347,1.41252041 L38.5874796,4.30176531 C39.3675931,5.08187879 39.3677278,6.34655795 38.5911341,7.12315158 L27.1231516,18.5911341 C26.3450564,19.3692293 26.3465579,20.6322722 27.1231516,21.4088659 L38.5911341,32.8768484 C39.3692293,33.6549436 39.3666383,34.919076 38.5874796,35.6982347 L35.6982347,38.5874796 Z" id="Shape"></path>
            </g>
        </g>
    </g>
</svg>