<svg width="100%" viewBox="0 0 60 60" version="1.1" xmlns="http://www.w3.org/2000/svg" >
    <g id="Page-1" stroke="none" stroke-width="1" fill="none" fill-rule="evenodd">
        <g id="вход" transform="translate(-80.000000, -690.000000)" fill="#FFFFFF">
            <g id="Rectangle-377-+-Войти-с-помощью-emai-2" transform="translate(60.000000, 670.000000)">
                <g id="Oval-187" transform="translate(20.000000, 20.000000)">
                    <path d="M30,60 C46.5685425,60 60,46.5685425 60,30 C60,13.4314575 46.5685425,0 30,0 C13.4314575,0 0,13.4314575 0,30 C0,46.5685425 13.4314575,60 30,60 Z M30,57 C44.9116882,57 57,44.9116882 57,30 C57,15.0883118 44.9116882,3 30,3 C15.0883118,3 3,15.0883118 3,30 C3,44.9116882 15.0883118,57 30,57 Z"></path>
                    <path d="M37.8315,45.615 C34.911,47.0235 32.1915,47.5275 28.7145,47.5275 C20.403,47.5275 13.2015,41.535 13.2015,31.7085 C13.2015,21.4335 20.5545,12.468 31.8375,12.468 C40.7055,12.468 46.8,18.6135 46.8,27.0255 C46.8,34.479 42.6195,39.012 37.53,39.012 C35.3145,39.012 33.552,37.755 33.4515,34.881 L33.2985,34.881 C31.638,37.653 29.37,39.012 26.5485,39.012 C23.4255,39.012 20.955,36.5955 20.955,32.5635 C20.955,26.3715 25.692,20.7285 32.844,20.7285 C35.0625,20.7285 37.2795,21.2325 38.589,21.888 L36.975,31.1055 C36.372,34.4805 36.822,36.042 38.337,36.042 C40.704,36.144 43.473,33.069 43.473,27.2775 C43.473,20.3265 39.1905,15.24 31.3845,15.24 C23.424,15.24 16.6215,21.435 16.6215,31.359 C16.6215,39.7695 22.065,44.706 29.5185,44.706 C32.2395,44.706 34.959,44.1555 36.975,43.0425 L37.8315,45.615 L37.8315,45.615 Z M34.155,24.408 C33.651,24.255 32.9985,24.105 32.142,24.105 C28.3125,24.105 25.29,27.831 25.29,32.1135 C25.29,34.179 26.2485,35.5875 28.1115,35.5875 C30.4785,35.5875 32.7435,32.5635 33.2505,29.595 L34.155,24.408 L34.155,24.408 Z" id="Shape"></path>
                </g>
            </g>
        </g>
    </g>
</svg>