<svg width="100%" viewBox="0 0 180 180" version="1.1" xmlns="http://www.w3.org/2000/svg">
    <defs>
        <linearGradient x1="-1.11022302e-14%" y1="50%" x2="100%" y2="50%" id="linearGradient-1">
            <stop stop-color="#FFF4E2" offset="0%"></stop>
            <stop stop-color="#FDF5E9" offset="100%"></stop>
        </linearGradient>
        <linearGradient x1="50%" y1="99.8007015%" x2="50%" y2="1.11022302e-14%" id="linearGradient-2">
            <stop stop-color="#FFFFFF" offset="0%"></stop>
            <stop stop-color="#FFFFFF" stop-opacity="0" offset="100%"></stop>
        </linearGradient>
    </defs>
    <g stroke="none" stroke-width="1" fill="none" fill-rule="evenodd" >
        <g transform="translate(-40.000000, -200.000000)">
            <g transform="translate(40.000000, 200.000000)">
                <path d="M0,0 L180,0 L180,180 L0,180 L0,0 Z M81.3480037,14.9952324 C86.1263693,12.2364417 93.8733582,12.2362844 98.6519963,14.9952324 L150.630036,45.0047676 C155.408402,47.7635583 159.282032,54.4725688 159.282032,59.9904648 L159.282032,120.009535 C159.282032,125.527117 155.408674,132.236284 150.630036,134.995232 L98.6519963,165.004768 C93.8736307,167.763558 86.1266418,167.763716 81.3480037,165.004768 L29.369964,134.995232 C24.5915984,132.236442 20.7179677,125.527431 20.7179677,120.009535 L20.7179677,59.9904648 C20.7179677,54.4728835 24.5913259,47.7637156 29.369964,45.0047676 L81.3480037,14.9952324 Z" id="Rectangle-281" fill="url(#linearGradient-1)"></path>
                <rect id="Rectangle-326" opacity="0.699999988" fill="#F2D9C2" x="89" y="0" width="2" height="10"></rect>
                <rect id="Rectangle-327" opacity="0.699999988" fill="#F2D9C2" x="89" y="170" width="2" height="10"></rect>
                <path d="M81.342258,4.99854965 C86.1237969,2.23792691 93.8784933,2.23924916 98.657742,4.99854965 L159.284544,40.0014503 C164.066083,42.7620731 167.942286,49.4784983 167.942286,54.9970993 L167.942286,125.002901 C167.942286,130.524146 164.063793,137.239249 159.284544,139.99855 L98.657742,175.00145 C93.8762031,177.762073 86.1215067,177.760751 81.342258,175.00145 L20.7154556,139.99855 C15.9339168,137.237927 12.0577137,130.521502 12.0577137,125.002901 L12.0577137,54.9970993 C12.0577137,49.4758538 15.936207,42.7607508 20.7154556,40.0014503 L81.342258,4.99854965 Z M81.3480037,14.9952324 C86.1263693,12.2364417 93.8733582,12.2362844 98.6519963,14.9952324 L150.630036,45.0047676 C155.408402,47.7635583 159.282032,54.4725688 159.282032,59.9904648 L159.282032,120.009535 C159.282032,125.527117 155.408674,132.236284 150.630036,134.995232 L98.6519963,165.004768 C93.8736307,167.763558 86.1266418,167.763716 81.3480037,165.004768 L29.369964,134.995232 C24.5915984,132.236442 20.7179677,125.527431 20.7179677,120.009535 L20.7179677,59.9904648 C20.7179677,54.4728835 24.5913259,47.7637156 29.369964,45.0047676 L81.3480037,14.9952324 Z" id="Polygon-329" fill="#F7E2CF"></path>
                <path d="M167.942286,91 L167.942286,54.9970993 C167.942286,49.4784983 164.066083,42.7620731 159.284544,40.0014503 L98.657742,4.99854965 C93.8784933,2.23924916 86.1237969,2.23792691 81.342258,4.99854965 L20.7154556,40.0014503 C15.936207,42.7607508 12.0577137,49.4758538 12.0577137,54.9970993 L12.0577137,91 L12.0577137,56.9970993 C12.0577137,51.4758538 15.936207,44.7607508 20.7154556,42.0014503 L81.342258,6.99854965 C86.1237969,4.23792691 93.8784933,4.23924916 98.657742,6.99854965 L159.284544,42.0014503 C164.066083,44.7620731 167.942286,51.4784983 167.942286,56.9970993 L167.942286,91 Z" id="Polygon-369" fill-opacity="0.1" fill="#000000"></path>
                <path d="M167.942286,89 L167.942286,125.002901 C167.942286,130.524146 164.063793,137.239249 159.284544,139.99855 L98.657742,175.00145 C93.8762031,177.762073 86.1215067,177.760751 81.342258,175.00145 L20.7154556,139.99855 C15.9339168,137.237927 12.0577137,130.521502 12.0577137,125.002901 L12.0577137,89 L12.0577137,123.002901 C12.0577137,128.521502 15.9339168,135.237927 20.7154556,137.99855 L81.342258,173.00145 C86.1215067,175.760751 93.8762031,175.762073 98.657742,173.00145 L159.284544,137.99855 C164.063793,135.239249 167.942286,128.524146 167.942286,123.002901 L167.942286,89 Z" id="Polygon-367" fill="#FFFFFF" ></path>
                <polygon id="Polygon-333" fill-opacity="0.1" fill="#FFFFFF" points="90 10 159.282032 50 159.282032 130 90 170 20.7179677 130 20.7179677 50 "></polygon>
                <path d="M159.282032,89 L159.282032,120.009535 C159.282032,125.527117 155.408674,132.236284 150.630036,134.995232 L98.6519963,165.004768 C93.8736307,167.763558 86.1266418,167.763716 81.3480037,165.004768 L29.369964,134.995232 C24.5915984,132.236442 20.7179677,125.527431 20.7179677,120.009535 L20.7179677,89 L20.7179677,118.009535 C20.7179677,123.527431 24.5915984,130.236442 29.369964,132.995232 L81.3480037,163.004768 C86.1266418,165.763716 93.8736307,165.763558 98.6519963,163.004768 L150.630036,132.995232 C155.408674,130.236284 159.282032,123.527117 159.282032,118.009535 L159.282032,89 Z" id="Polygon-364" fill-opacity="0.300000012" fill="#000000"></path>
                <path d="M159.282032,91 L159.282032,59.9904648 C159.282032,54.4725688 155.408402,47.7635583 150.630036,45.0047676 L98.6519963,14.9952324 C93.8733582,12.2362844 86.1263693,12.2364417 81.3480037,14.9952324 L29.369964,45.0047676 C24.5913259,47.7637156 20.7179677,54.4728835 20.7179677,59.9904648 L20.7179677,91 L20.7179677,61.9904648 C20.7179677,56.4728835 24.5913259,49.7637156 29.369964,47.0047676 L81.3480037,16.9952324 C86.1263693,14.2364417 93.8733582,14.2362844 98.6519963,16.9952324 L150.630036,47.0047676 C155.408402,49.7635583 159.282032,56.4725688 159.282032,61.9904648 L159.282032,91 Z" id="Polygon-362" fill-opacity="0.7" fill="#FFFFFF"></path>
                <path d="M157.846581,53.6485702 C156.297468,50.0558963 153.643688,46.7447006 150.630036,45.0047676 L98.6519963,14.9952324 C93.8733582,12.2362844 86.1263693,12.2364417 81.3480037,14.9952324 L29.369964,45.0047676 C26.3561879,46.7447721 23.7024898,50.0559891 22.1534231,53.6485776 C29.8533957,68.7957506 57.3098052,80 90,80 C122.6902,80 150.146613,68.7957469 157.846581,53.6485702 Z" id="Polygon-361" opacity="0.100000001" fill="url(#linearGradient-2)"></path>
            </g>
        </g>
    </g>
</svg>