<svg version="1.1" xmlns="http://www.w3.org/2000/svg" width="100%" viewBox="0.992 61.776 318.016 356.448">
    <g>
        <g>
            <path fill="#FF9782" d="M175.9,65.574l127.207,73.443c8.779,5.07,15.898,17.426,15.898,27.541v146.885
				c0,10.141-7.141,22.481-15.898,27.541L175.9,414.426c-8.781,5.07-23.042,5.06-31.801,0L16.893,340.984
				c-8.782-5.07-15.901-17.428-15.901-27.543V166.558c0-10.141,7.141-22.484,15.901-27.541l127.206-73.443
				C152.881,60.504,167.141,60.517,175.9,65.574z" />
            <path fill-opacity="0.3" d="M319.008,237.377v76.064c0,10.142-7.141,22.482-15.9,27.543L175.9,414.426
				c-8.781,5.07-23.042,5.06-31.801,0L16.893,340.984c-8.782-5.07-15.901-17.428-15.901-27.543v-76.064v70.82
				c0,10.113,7.119,22.471,15.901,27.541l127.206,73.44c8.76,5.059,23.02,5.07,31.801,0l127.207-73.44
				c8.76-5.059,15.898-17.401,15.898-27.541L319.008,237.377L319.008,237.377z" />
            <path fill="#FFFFFF" fill-opacity="0.9" d="M319.008,242.623v-76.065c0-10.115-7.119-22.471-15.9-27.541
				L175.9,65.574c-8.76-5.057-23.021-5.07-31.801,0L16.893,139.017c-8.76,5.057-15.901,17.4-15.901,27.541v76.065v-70.819
				c0-10.141,7.141-22.484,15.901-27.542L144.099,70.82c8.782-5.07,23.042-5.058,31.801,0l127.207,73.442
				c8.779,5.07,15.898,17.426,15.898,27.542L319.008,242.623L319.008,242.623z" />

            <linearGradient id="gradient" gradientUnits="userSpaceOnUse" x1="3.415" y1="476.4336" x2="3.415" y2="477.4301" gradientTransform="matrix(308.522 0 0 -151.9945 -893.511 72628.6094)">
                <stop offset="0" style="stop-color:#FFFFFF" />
                <stop offset="1" style="stop-color:#FFFFFF;stop-opacity:0" />
            </linearGradient>
            <path opacity="0.1" fill="url(#gradient)" d="M314.261,150.741
				c-2.87-4.923-6.809-9.215-11.153-11.724L175.9,65.574c-8.76-5.057-23.021-5.07-31.801,0L16.893,139.017
				c-4.339,2.505-8.281,6.797-11.154,11.724c14.521,35.957,78.067,63.03,154.261,63.03
				C236.193,213.771,299.74,186.697,314.261,150.741z" />
        </g>
        <g stroke="none" stroke-width="1" fill-rule="evenodd">
            <g transform="translate(-554.000000, -61.000000)">
                <g transform="translate(554.000000, 61.000000)">
                    <path d="M146,155.819c7.731-4.363,20.242-4.378,28.003,0l55.928,31.556c7.733,4.362,14,14.939,14,23.695
					v63.109c0,8.722-6.239,19.316-14,23.695l-55.928,31.555c-7.732,4.363-20.242,4.374-28.003,0l-55.928-31.555
					c-7.733-4.362-14.002-14.94-14.002-23.695V211.07c0-8.724,6.241-19.318,14.002-23.695L146,155.819z M148.838,173.16
					c6.167-3.479,16.155-3.482,22.326,0l44.82,25.284c6.164,3.479,11.166,11.932,11.166,18.895v50.569
					c0,6.96-4.995,15.414-11.166,18.897l-44.82,25.285c-6.164,3.478-16.153,3.48-22.326,0l-44.818-25.285
					c-6.163-3.48-11.164-11.93-11.164-18.897v-50.569c0-6.958,4.992-15.411,11.164-18.895L148.838,173.16z" fill="#F9FFBF" />
                    <path d="M121.237,214.241c0-1.759,1.445-3.186,3.231-3.186h71.069c1.783,0,3.229,1.4,3.229,3.186v6.256
					c0,1.76-1.445,3.186-3.229,3.186h-71.069c-1.784,0-3.231-1.4-3.231-3.186V214.241L121.237,214.241z M121.237,239.497
					c0-1.76,1.445-3.185,3.231-3.185h71.069c1.783,0,3.229,1.399,3.229,3.185v6.256c0,1.759-1.445,3.187-3.229,3.187h-71.069
					c-1.784,0-3.231-1.401-3.231-3.187V239.497L121.237,239.497z M121.237,264.752c0-1.759,1.445-3.186,3.231-3.186h71.069
					c1.783,0,3.229,1.401,3.229,3.186v6.253c0,1.761-1.445,3.186-3.229,3.186h-71.069c-1.784,0-3.231-1.399-3.231-3.186V264.752
					L121.237,264.752z" fill="#FFE0B6" />
                </g>
            </g>
        </g>
    </g>
</svg>
