<svg width="100%" viewBox="0 0 250 250" version="1.1" xmlns="http://www.w3.org/2000/svg">
    <defs>
        <linearGradient x1="50%" y1="99.8007015%" x2="50%" y2="1.11022302e-14%" id="linearGradient-1">
            <stop stop-color="#FFFFFF" offset="0%"></stop>
            <stop stop-color="#FFFFFF" stop-opacity="0" offset="100%"></stop>
        </linearGradient>
    </defs>
    <g stroke="none" stroke-width="1" fill="none" fill-rule="evenodd">
        <g id="photo-frame-big">
            <path d="M0,0 L250,0 L250,250 L0,250 L0,0 Z M112.003613,22.5034674 C119.181319,18.3594168 130.815712,18.3577032 137.996387,22.5034674 L207.266408,62.4965326 C214.444114,66.6405832 220.262794,76.7154063 220.262794,85.0069347 L220.262794,164.993065 C220.262794,173.281166 214.447082,183.357703 207.266408,187.503467 L137.996387,227.496533 C130.818681,231.640583 119.184288,231.642297 112.003613,227.496533 L42.7335923,187.503467 C35.5558861,183.359417 29.7372056,173.284594 29.7372056,164.993065 L29.7372056,85.0069347 C29.7372056,76.7188335 35.5529181,66.6422968 42.7335923,62.4965326 L112.003613,22.5034674 Z" id="Rectangle-268" fill="#30323A"></path>
            <path d="M112.009382,7.50013669 C119.183902,3.35792557 130.820161,3.36027145 137.990618,7.50013669 L220.262558,54.9998633 C227.437078,59.1420744 233.253175,69.2205429 233.253175,77.5002734 L233.253175,172.499727 C233.253175,180.784149 227.433015,190.860271 220.262558,195.000137 L137.990618,242.499863 C130.816098,246.642074 119.179839,246.639729 112.009382,242.499863 L29.7374423,195.000137 C22.5629222,190.857926 16.7468245,180.779457 16.7468245,172.499727 L16.7468245,77.5002734 C16.7468245,69.2158511 22.5669854,59.1397285 29.7374423,54.9998633 L112.009382,7.50013669 Z M112.003613,22.5034674 C119.181319,18.3594168 130.815712,18.3577032 137.996387,22.5034674 L207.266408,62.4965326 C214.444114,66.6405832 220.262794,76.7154063 220.262794,85.0069347 L220.262794,164.993065 C220.262794,173.281166 214.447082,183.357703 207.266408,187.503467 L137.996387,227.496533 C130.818681,231.640583 119.184288,231.642297 112.003613,227.496533 L42.7335923,187.503467 C35.5558861,183.359417 29.7372056,173.284594 29.7372056,164.993065 L29.7372056,85.0069347 C29.7372056,76.7188335 35.5529181,66.6422968 42.7335923,62.4965326 L112.003613,22.5034674 Z" id="Polygon-329" fill="#2B2C34"></path>
            <path d="M233.253175,125.5 L233.253175,77.5002734 C233.253175,69.2205429 227.437078,59.1420744 220.262558,54.9998633 L137.990618,7.50013669 C130.820161,3.36027145 119.183902,3.35792557 112.009382,7.50013669 L29.7374423,54.9998633 C22.5669854,59.1397285 16.7468245,69.2158511 16.7468245,77.5002734 L16.7468245,125.5 L16.7468245,78.5002734 C16.7468245,70.2158511 22.5669854,60.1397285 29.7374423,55.9998633 L112.009382,8.50013669 C119.183902,4.35792557 130.820161,4.36027145 137.990618,8.50013669 L220.262558,55.9998633 C227.437078,60.1420744 233.253175,70.2205429 233.253175,78.5002734 L233.253175,125.5 Z" id="Polygon-358" fill-opacity="0.5" fill="#000000"></path>
            <path d="M233.253175,124.5 L233.253175,172.499727 C233.253175,180.784149 227.433015,190.860271 220.262558,195.000137 L137.990618,242.499863 C130.816098,246.642074 119.179839,246.639729 112.009382,242.499863 L29.7374423,195.000137 C22.5629222,190.857926 16.7468245,180.779457 16.7468245,172.499727 L16.7468245,124.5 L16.7468245,171.499727 C16.7468245,179.779457 22.5629222,189.857926 29.7374423,194.000137 L112.009382,241.499863 C119.179839,245.639729 130.816098,245.642074 137.990618,241.499863 L220.262558,194.000137 C227.433015,189.860271 233.253175,179.784149 233.253175,171.499727 L233.253175,124.5 Z" id="Polygon-356" fill-opacity="0.200000018" fill="#FFFFFF"></path>
            <path d="M112.003613,22.5034674 C119.181319,18.3594168 130.815712,18.3577032 137.996387,22.5034674 L207.266408,62.4965326 C214.444114,66.6405832 220.262794,76.7154063 220.262794,85.0069347 L220.262794,164.993065 C220.262794,173.281166 214.447082,183.357703 207.266408,187.503467 L137.996387,227.496533 C130.818681,231.640583 119.184288,231.642297 112.003613,227.496533 L42.7335923,187.503467 C35.5558861,183.359417 29.7372056,173.284594 29.7372056,164.993065 L29.7372056,85.0069347 C29.7372056,76.7188335 35.5529181,66.6422968 42.7335923,62.4965326 L112.003613,22.5034674 L112.003613,22.5034674 Z" id="Polygon-331" fill-opacity="0.1" fill="#FFFFFF"></path>
            <path d="M220.262794,124 L220.262794,164.993065 C220.262794,173.281166 214.447082,183.357703 207.266408,187.503467 L137.996387,227.496533 C130.818681,231.640583 119.184288,231.642297 112.003613,227.496533 L42.7335923,187.503467 C35.5558861,183.359417 29.7372056,173.284594 29.7372056,164.993065 L29.7372056,124 L29.7372056,162.993065 C29.7372056,171.284594 35.5558861,181.359417 42.7335923,185.503467 L112.003613,225.496533 C119.184288,229.642297 130.818681,229.640583 137.996387,225.496533 L207.266408,185.503467 C214.447082,181.357703 220.262794,171.281166 220.262794,162.993065 L220.262794,124 Z" id="Polygon-354" fill-opacity="0.300000012" fill="#000000"></path>
            <path d="M220.262794,126 L220.262794,85.0069347 C220.262794,76.7154063 214.444114,66.6405832 207.266408,62.4965326 L137.996387,22.5034674 C130.815712,18.3577032 119.181319,18.3594168 112.003613,22.5034674 L42.7335923,62.4965326 C35.5529181,66.6422968 29.7372056,76.7188335 29.7372056,85.0069347 L29.7372056,126 L29.7372056,87.0069347 C29.7372056,78.7188335 35.5529181,68.6422968 42.7335923,64.4965326 L112.003613,24.5034674 C119.181319,20.3594168 130.815712,20.3577032 137.996387,24.5034674 L207.266408,64.4965326 C214.444114,68.6405832 220.262794,78.7154063 220.262794,87.0069347 L220.262794,126 Z" id="Polygon-352" fill-opacity="0.700000048" fill="#FFFFFF"></path>
            <path d="M220.162576,83.075601 C219.364318,75.2082356 213.894859,66.3234705 207.266408,62.4965326 L137.996387,22.5034674 C130.815712,18.3577032 119.181319,18.3594168 112.003613,22.5034674 L42.7335923,62.4965326 C38.0936375,65.1754118 34.0236075,70.3306197 31.7243248,75.8794968 C46.7019893,92.8964427 85.0529011,105 130,105 C168.307806,105 201.824192,96.2080694 220.162576,83.075601 Z" id="Polygon-350" opacity="0.1" fill="url(#linearGradient-1)"></path>
        </g>
    </g>
</svg>