<svg width="100%" viewBox="0 0 130 130" version="1.1" xmlns="http://www.w3.org/2000/svg">
    <g stroke="none" stroke-width="1" fill="none" fill-rule="evenodd">
        <g transform="translate(-455.000000, -440.000000)" fill="#FFB4A3">
            <g transform="translate(455.000000, 440.000000)">
                <path d="M65,130 C100.898509,130 130,100.898509 130,65 C130,29.1014913 100.898509,0 65,0 C29.1014913,0 0,29.1014913 0,65 C0,100.898509 29.1014913,130 65,130 Z M65,122 C96.4802307,122 122,96.4802307 122,65 C122,33.5197693 96.4802307,8 65,8 C33.5197693,8 8,33.5197693 8,65 C8,96.4802307 33.5197693,122 65,122 Z"></path>
                <path d="M89.5454545,47.625 C89.5454545,47.625 95,47.625 95,53.25 L95,81.375 C95,87 89.5454545,87 89.5454545,87 L40.4545455,87 C40.4545455,87 35,87 35,81.375 L35,53.25 C35,47.625 40.4545455,47.625 40.4545455,47.625 L53.5454545,47.625 L56.1055999,43.2247503 C56.4971751,42.5517304 57.432882,42 58.191153,42 L74.5361199,42 C75.2739023,42 76.2281248,42.5483394 76.621673,43.2247503 L79.1818182,47.625 L89.5454545,47.625 Z M66.3636364,78.5625 C73.1416768,78.5625 78.6363636,72.8961042 78.6363636,65.9062501 C78.6363636,58.9163959 73.1416768,53.25 66.3636364,53.25 C59.5855959,53.25 54.0909091,58.9163959 54.0909091,65.9062501 C54.0909091,72.8961042 59.5855959,78.5625 66.3636364,78.5625 L66.3636364,78.5625 Z M66.3636364,75.75 C71.6354455,75.75 75.9090909,71.3428032 75.9090909,65.9062501 C75.9090909,60.4696968 71.6354455,56.0625 66.3636364,56.0625 C61.0918272,56.0625 56.8181818,60.4696968 56.8181818,65.9062501 C56.8181818,71.3428032 61.0918272,75.75 66.3636364,75.75 L66.3636364,75.75 Z M81.3636364,58.875 C82.8698676,58.875 84.0909091,57.615801 84.0909091,56.0625 C84.0909091,54.5091991 82.8698676,53.25 81.3636364,53.25 C79.8574051,53.25 78.6363636,54.5091991 78.6363636,56.0625 C78.6363636,57.615801 79.8574051,58.875 81.3636364,58.875 L81.3636364,58.875 Z M46.5136634,43.40625 C46.1797673,43.40625 45.9090909,43.6558406 45.9090909,43.9686417 L45.9090909,45.6563583 C45.9090909,45.9669587 46.1795827,46.21875 46.5136634,46.21875 L50.7590639,46.21875 C51.09296,46.21875 51.3636364,45.9691594 51.3636364,45.6563583 L51.3636364,43.9686417 C51.3636364,43.6580413 51.0931446,43.40625 50.7590639,43.40625 L46.5136634,43.40625 L46.5136634,43.40625 Z"></path>
            </g>
        </g>
    </g>
</svg>