<svg width="100%" viewBox="0 0 40 40" version="1.1" xmlns="http://www.w3.org/2000/svg" >
    <g stroke="none" stroke-width="1" fill="none" fill-rule="evenodd" >
        <g transform="translate(-550.000000, -550.000000)" fill="#000000">
            <path d="M573,567 L573,558.0033 C573,557.451279 572.556414,557 572.009222,557 L567.990778,557 C567.450975,557 567,557.449193 567,558.0033 L567,567 L558.0033,567 C557.451279,567 557,567.443586 557,567.990778 L557,572.009222 C557,572.549025 557.449193,573 558.0033,573 L567,573 L567,581.9967 C567,582.548721 567.443586,583 567.990778,583 L572.009222,583 C572.549025,583 573,582.550807 573,581.9967 L573,573 L581.9967,573 C582.548721,573 583,572.556414 583,572.009222 L583,567.990778 C583,567.450975 582.550807,567 581.9967,567 L573,567 Z M570,590 C581.045695,590 590,581.045695 590,570 C590,558.954305 581.045695,550 570,550 C558.954305,550 550,558.954305 550,570 C550,581.045695 558.954305,590 570,590 Z"></path>
        </g>
    </g>
</svg>