<svg width="100%" viewBox="0 0 140 156" version="1.1" xmlns="http://www.w3.org/2000/svg">
    <g id="Page-1" stroke="none" stroke-width="1" fill="none" fill-rule="evenodd">
        <g id="профайл" transform="translate(-430.000000, -922.000000)">
            <g id="Polygon-329-+-Polygon-332-+-1418935471_700401-icon-31-award-8" transform="translate(430.000000, 922.000000)">
                <path d="M76.057331,1.49720168 L133.224701,34.5027983 C136.570073,36.4342495 139.282032,41.1360948 139.282032,44.9944034 L139.282032,111.005597 C139.282032,114.868499 136.566095,119.568047 133.224701,121.497202 L76.057331,154.502798 C72.7119595,156.434249 67.2840622,156.431953 63.942669,154.502798 L6.77529869,121.497202 C3.42992716,119.565751 0.717967697,114.863905 0.717967697,111.005597 L0.717967697,44.9944034 C0.717967697,41.131501 3.43390547,36.4319526 6.77529869,34.5027983 L63.942669,1.49720168 C67.2880405,-0.434249475 72.7159378,-0.431952596 76.057331,1.49720168 Z" id="Polygon-336" fill="#F7E2CF"></path>
                <path d="M139.282032,79 L139.282032,44.9944034 C139.282032,41.1360948 136.570073,36.4342495 133.224701,34.5027983 L76.057331,1.49720168 C72.7159378,-0.431952596 67.2880405,-0.434249475 63.942669,1.49720168 L6.77529869,34.5027983 C3.43390547,36.4319526 0.717967697,41.131501 0.717967697,44.9944034 L0.717967697,79 L0.717967697,46.9944034 C0.717967697,43.131501 3.43390547,38.4319526 6.77529869,36.5027983 L63.942669,3.49720168 C67.2880405,1.56575052 72.7159378,1.5680474 76.057331,3.49720168 L133.224701,36.5027983 C136.570073,38.4342495 139.282032,43.1360948 139.282032,46.9944034 L139.282032,79 Z" id="Polygon-334" fill-opacity="0.1" fill="#000000"></path>
                <path d="M139.282032,77 L139.282032,111.005597 C139.282032,114.868499 136.566095,119.568047 133.224701,121.497202 L76.057331,154.502798 C72.7119595,156.434249 67.2840622,156.431953 63.942669,154.502798 L6.77529869,121.497202 C3.42992716,119.565751 0.717967697,114.863905 0.717967697,111.005597 L0.717967697,77 L0.717967697,109.005597 C0.717967697,112.863905 3.42992716,117.565751 6.77529869,119.497202 L63.942669,152.502798 C67.2840622,154.431953 72.7119595,154.434249 76.057331,152.502798 L133.224701,119.497202 C136.566095,117.568047 139.282032,112.868499 139.282032,109.005597 L139.282032,77 Z" id="Polygon-331" fill="#FFFFFF"></path>
            </g>
        </g>
    </g>
</svg>