<svg width="100%" class="missionSvg" viewBox="0 0 56 56" version="1.1" xmlns="http://www.w3.org/2000/svg" >
    <g id="Page-1" stroke="none" stroke-width="1" fill="none" fill-rule="evenodd">
        <g id="missionSvg" transform="translate(-32.000000, -62.000000)" fill="#000000">
            <g id="Oval-123-+-Oval-125" transform="translate(32.000000, 62.000000)">
                <path d="M28,56 C43.463973,56 56,43.463973 56,28 C56,12.536027 43.463973,0 28,0 C12.536027,0 0,12.536027 0,28 C0,43.463973 12.536027,56 28,56 Z M28,51 C40.7025492,51 51,40.7025492 51,28 C51,15.2974508 40.7025492,5 28,5 C15.2974508,5 5,15.2974508 5,28 C5,40.7025492 15.2974508,51 28,51 Z" id="Oval-123"></path>
                <path id="Oval-255" d="M47.326,45.265C44.239,38.203,36.199,33,28,33 c-8.2,0-16.08,5.111-19.167,12.173c1.21,1.305,12.45,7.74,19.167,7.74C34.717,52.913,47.326,45.265,47.326,45.265z" />
                <circle id="Oval-124" cx="28" cy="25" r="10"></circle>
            </g>
        </g>
    </g>
</svg>