<svg width="100%" viewBox="0 0 122 136" version="1.1" xmlns="http://www.w3.org/2000/svg" >
    <defs>
        <linearGradient x1="50%" y1="99.8007015%" x2="50%" y2="1.11022302e-14%" id="linearGradient-1">
            <stop stop-color="#FFFFFF" offset="0%"></stop>
            <stop stop-color="#FFFFFF" stop-opacity="0" offset="100%"></stop>
        </linearGradient>
    </defs>
    <g stroke="none" stroke-width="1" fill="none" fill-rule="evenodd">
        <g transform="translate(-149.000000, -932.000000)">
            <g id="Polygon-329-+-Polygon-332-+-1418935471_700401-icon-31-award-7" transform="translate(149.000000, 932.000000)">
                <path d="M67.0622165,1.50002234 L115.559562,29.4999777 C118.907631,31.4329866 121.621778,36.1437433 121.621778,40.0000447 L121.621778,95.9999553 C121.621778,99.8659732 118.899217,104.571872 115.559562,106.500022 L67.0622165,134.499978 C63.7141468,136.432987 58.2774384,136.428128 54.9377835,134.499978 L6.44043826,106.500022 C3.09236852,104.567013 0.378221735,99.8562567 0.378221735,95.9999553 L0.378221735,40.0000447 C0.378221735,36.1340268 3.10078332,31.4281283 6.44043826,29.4999777 L54.9377835,1.50002234 C58.2858532,-0.432986622 63.7225616,-0.428128334 67.0622165,1.50002234 Z" id="Polygon-332" fill="#FF9782"></path>
                <path d="M121.621778,67 L121.621778,95.9999553 C121.621778,99.8659732 118.899217,104.571872 115.559562,106.500022 L67.0622165,134.499978 C63.7141468,136.432987 58.2774384,136.428128 54.9377835,134.499978 L6.44043826,106.500022 C3.09236852,104.567013 0.378221735,99.8562567 0.378221735,95.9999553 L0.378221735,67 L0.378221735,93.9999553 C0.378221735,97.8562567 3.09236852,102.567013 6.44043826,104.500022 L54.9377835,132.499978 C58.2774384,134.428128 63.7141468,134.432987 67.0622165,132.499978 L115.559562,104.500022 C118.899217,102.571872 121.621778,97.8659732 121.621778,93.9999553 L121.621778,67 Z" id="Polygon-343" fill-opacity="0.300000012" fill="#000000"></path>
                <path d="M121.621778,69 L121.621778,40.0000447 C121.621778,36.1437433 118.907631,31.4329866 115.559562,29.4999777 L67.0622165,1.50002234 C63.7225616,-0.428128334 58.2858532,-0.432986622 54.9377835,1.50002234 L6.44043826,29.4999777 C3.10078332,31.4281283 0.378221735,36.1340268 0.378221735,40.0000447 L0.378221735,69 L0.378221735,42.0000447 C0.378221735,38.1340268 3.10078332,33.4281283 6.44043826,31.4999777 L54.9377835,3.50002234 C58.2858532,1.56701338 63.7225616,1.57187167 67.0622165,3.50002234 L115.559562,31.4999777 C118.907631,33.4329866 121.621778,38.1437433 121.621778,42.0000447 L121.621778,69 Z" id="Polygon-342" fill-opacity="0.900000036" fill="#FFFFFF"></path>
                <path d="M119.812002,33.9698224 C118.717765,32.0931194 117.216272,30.4564797 115.559562,29.4999777 L67.0622165,1.50002234 C63.7225616,-0.428128334 58.2858532,-0.432986622 54.9377835,1.50002234 L6.44043826,29.4999777 C4.78629016,30.4550005 3.28353182,32.0914802 2.1880024,33.9698324 C7.72390847,47.6783018 31.9511924,58 61,58 C90.0488147,58 114.276103,47.6782967 119.812002,33.9698224 Z" id="Polygon-344" opacity="0.100000001" fill="url(#linearGradient-1)"></path>
                <path d="M41.7791937,74.987257 L39,100 L48,94.2727273 L48,106 L61,93 L74,106 L74,94.2727273 L83,100 L80.2208063,74.987257 C83.8293967,70.6535536 86,65.0802625 86,59 C86,45.1928812 74.8071186,34 61,34 C47.1928814,34 36,45.1928812 36,59 C36,65.0802625 38.1706033,70.6535536 41.7791937,74.987257 L41.7791937,74.987257 L41.7791937,74.987257 Z" id="award-path" fill-opacity="0.300000012" fill="#000000"></path>
                <g id="1418935471_700401-icon-31-award" transform="translate(36.000000, 33.000000)">
                    <path d="M3,66 L25,52 L47,66 L43,30 L7,30 L3,66 Z" id="award-path" fill="#479BB3"></path>
                    <path d="M12,72 L25,59 L38,72 L38,39 L12,39 L12,72 Z" id="award-path-2" fill="#5CC6E4"></path>
                    <path d="M25,50 C38.8071186,50 50,38.8071186 50,25 C50,11.1928813 38.8071186,0 25,0 C11.1928814,0 0,11.1928813 0,25 C0,38.8071186 11.1928814,50 25,50 L25,50 L25,50 Z" id="award" fill="#F9FFBF"></path>
                    <circle id="Oval-216" fill="#FFDFB6" cx="25" cy="25" r="18"></circle>
                </g>
            </g>
        </g>
    </g>
</svg>