<svg version="1.1" xmlns="http://www.w3.org/2000/svg" width="100%" viewBox="0 0 32 32">
<path d="M30.545 15.273l-10.182-4.364 4.070-2.908c-2.121-2.234-5.11-3.638-8.433-3.638-5.636 0-10.333 4.007-11.405 9.327l-2.716-1.124c1.545-6.372 7.273-11.111 14.121-11.111 4.301 0 8.151 1.879 10.816 4.847l3.729-2.665v11.636zM7.567 23.999c2.119 2.234 5.11 3.638 8.433 3.638 5.658 0 10.368-4.038 11.415-9.389l2.713 1.161c-1.536 6.385-7.27 11.137-14.128 11.137-4.301 0-8.153-1.879-10.816-4.847l-3.729 2.665v-11.636l10.182 4.364-4.070 2.908z" fill="#FFFFFF"></path>
</svg>
