<svg width="100%" viewBox="0 0 44 44" version="1.1" xmlns="http://www.w3.org/2000/svg">
    <g stroke="none" stroke-width="1" fill="none" fill-rule="evenodd">
        <g transform="translate(-138.000000, -458.000000)">
            <g transform="translate(138.000000, 458.000000)">
                <circle id="Oval-146" fill="#FFFFFF" cx="22" cy="22" r="22"></circle>
                <circle id="Oval-147" fill="#FF7F66" cx="22" cy="22" r="18"></circle>
                <path d="M29.8491173,31.2937398 C29.4590606,31.6837965 28.826721,31.6838639 28.4318589,31.2890017 L22.7109983,25.5681411 C22.3183248,25.1754676 21.6838639,25.173279 21.2890017,25.5681411 L15.5681411,31.2890017 C15.1754676,31.6816752 14.540462,31.6833192 14.1508827,31.2937398 L12.7062602,29.8491173 C12.3162035,29.4590606 12.3161361,28.826721 12.7109983,28.4318589 L18.4318589,22.7109983 C18.8245324,22.3183248 18.826721,21.6838639 18.4318589,21.2890017 L12.7109983,15.5681411 C12.3183248,15.1754676 12.3166808,14.540462 12.7062602,14.1508827 L14.1508827,12.7062602 C14.5409394,12.3162035 15.173279,12.3161361 15.5681411,12.7109983 L21.2890017,18.4318589 C21.6816752,18.8245324 22.3161361,18.826721 22.7109983,18.4318589 L28.4318589,12.7109983 C28.8245324,12.3183248 29.459538,12.3166808 29.8491173,12.7062602 L31.2937398,14.1508827 C31.6837965,14.5409394 31.6838639,15.173279 31.2890017,15.5681411 L25.5681411,21.2890017 C25.1754676,21.6816752 25.173279,22.3161361 25.5681411,22.7109983 L31.2890017,28.4318589 C31.6816752,28.8245324 31.6833192,29.459538 31.2937398,29.8491173 L29.8491173,31.2937398 Z" fill="#FFFFFF"></path>
            </g>
        </g>
    </g>
</svg>