<svg width="100%" viewBox="0 0 122 136" version="1.1" xmlns="http://www.w3.org/2000/svg">
    <defs>
        <linearGradient x1="50%" y1="99.8007015%" x2="50%" y2="1.11022302e-14%" id="linearGradient-1">
            <stop stop-color="#FFFFFF" offset="0%"></stop>
            <stop stop-color="#FFFFFF" stop-opacity="0" offset="100%"></stop>
        </linearGradient>
    </defs>
    <g stroke="none" stroke-width="1" fill="none" fill-rule="evenodd">
        <g transform="translate(-9.000000, -932.000000)">
            <g id="Polygon-329-+-Polygon-332-+-1418935471_700401-icon-31-award-6" transform="translate(9.000000, 932.000000)">
                <path d="M67.0622165,1.50002234 L115.559562,29.4999777 C118.907631,31.4329866 121.621778,36.1437433 121.621778,40.0000447 L121.621778,95.9999553 C121.621778,99.8659732 118.899217,104.571872 115.559562,106.500022 L67.0622165,134.499978 C63.7141468,136.432987 58.2774384,136.428128 54.9377835,134.499978 L6.44043826,106.500022 C3.09236852,104.567013 0.378221735,99.8562567 0.378221735,95.9999553 L0.378221735,40.0000447 C0.378221735,36.1340268 3.10078332,31.4281283 6.44043826,29.4999777 L54.9377835,1.50002234 C58.2858532,-0.432986622 63.7225616,-0.428128334 67.0622165,1.50002234 Z" id="Polygon-332" fill="#FF9782"></path>
                <path d="M121.621778,67 L121.621778,95.9999553 C121.621778,99.8659732 118.899217,104.571872 115.559562,106.500022 L67.0622165,134.499978 C63.7141468,136.432987 58.2774384,136.428128 54.9377835,134.499978 L6.44043826,106.500022 C3.09236852,104.567013 0.378221735,99.8562567 0.378221735,95.9999553 L0.378221735,67 L0.378221735,93.9999553 C0.378221735,97.8562567 3.09236852,102.567013 6.44043826,104.500022 L54.9377835,132.499978 C58.2774384,134.428128 63.7141468,134.432987 67.0622165,132.499978 L115.559562,104.500022 C118.899217,102.571872 121.621778,97.8659732 121.621778,93.9999553 L121.621778,67 Z" id="Polygon-347" fill-opacity="0.300000012" fill="#000000"></path>
                <path d="M121.621778,69 L121.621778,40.0000447 C121.621778,36.1437433 118.907631,31.4329866 115.559562,29.4999777 L67.0622165,1.50002234 C63.7225616,-0.428128334 58.2858532,-0.432986622 54.9377835,1.50002234 L6.44043826,29.4999777 C3.10078332,31.4281283 0.378221735,36.1340268 0.378221735,40.0000447 L0.378221735,69 L0.378221735,42.0000447 C0.378221735,38.1340268 3.10078332,33.4281283 6.44043826,31.4999777 L54.9377835,3.50002234 C58.2858532,1.56701338 63.7225616,1.57187167 67.0622165,3.50002234 L115.559562,31.4999777 C118.907631,33.4329866 121.621778,38.1437433 121.621778,42.0000447 L121.621778,69 Z" id="Polygon-345" fill-opacity="0.900000036" fill="#FFFFFF"></path>
                <path d="M119.812002,33.9698224 C118.717765,32.0931194 117.216272,30.4564797 115.559562,29.4999777 L67.0622165,1.50002234 C63.7225616,-0.428128334 58.2858532,-0.432986622 54.9377835,1.50002234 L6.44043826,29.4999777 C4.78629016,30.4550005 3.28353182,32.0914802 2.1880024,33.9698324 C7.72390847,47.6783018 31.9511924,58 61,58 C90.0488147,58 114.276103,47.6782967 119.812002,33.9698224 Z" id="Polygon-346" opacity="0.100000001" fill="url(#linearGradient-1)"></path>
                <path d="M51.8974403,52.3476395 C51.1276355,53.8135779 49.1734645,55.1617141 47.5246114,55.3597547 L32.2191575,57.1980632 C30.5739155,57.3956701 30.1533754,58.5327564 31.2948081,59.753813 L41.9621714,71.1653088 C43.0969093,72.3792036 43.7760041,74.6865628 43.4791076,76.3181956 L40.4090876,93.1898839 C40.1121304,94.8218499 41.0679071,95.5215039 42.5259685,94.761933 L58.3455208,86.5208035 C59.811599,85.7570562 62.1813343,85.7623603 63.6546596,86.5412074 L79.4742119,94.9039313 C80.9402901,95.6789474 81.8910735,94.9897231 81.5954545,93.3512513 L78.5176818,76.2926555 C78.2231336,74.660118 78.9086983,72.3495236 80.0389797,71.142429 L90.706343,59.7501179 C91.8410809,58.5382639 91.430786,57.3961038 89.7818576,57.1980632 L74.4757051,55.3597547 C72.830388,55.1621478 70.871425,53.8114453 70.1027402,52.3476395 L62.393945,37.6677883 C61.6241403,36.2018499 60.3749203,36.2039825 59.6062354,37.6677883 L51.8974403,52.3476395 Z" id="Shape-3" fill-opacity="0.300000012" fill="#000000"></path>
                <g id="Shape-5" transform="translate(30.000000, 35.000000)">
                    <path d="M21.8974403,16.3476395 C21.1276355,17.8135779 19.1734645,19.1617141 17.5246114,19.3597547 L2.21915751,21.1980632 C0.573915533,21.3956701 0.153375369,22.5327564 1.29480806,23.753813 L11.9621714,35.1653088 C13.0969093,36.3792036 13.7760041,38.6865628 13.4791076,40.3181956 L10.4090876,57.1898839 C10.1121304,58.8218499 11.0679071,59.5215039 12.5259685,58.761933 L28.3455208,50.5208035 C29.811599,49.7570562 32.1813343,49.7623603 33.6546596,50.5412074 L49.4742119,58.9039313 C50.9402901,59.6789474 51.8910735,58.9897231 51.5954545,57.3512513 L48.5176818,40.2926555 C48.2231336,38.660118 48.9086983,36.3495236 50.0389797,35.142429 L60.706343,23.7501179 C61.8410809,22.5382639 61.430786,21.3961038 59.7818576,21.1980632 L44.4757051,19.3597547 C42.830388,19.1621478 40.871425,17.8114453 40.1027402,16.3476395 L32.393945,1.66778829 C31.6241403,0.201849865 30.3749203,0.203982509 29.6062354,1.66778829 L21.8974403,16.3476395 Z" id="Shape-3" fill="#FFE0B6"></path>
                    <path d="M2.35876955,21.1812947 L17.5246114,19.3597547 C19.1734645,19.1617141 21.1276355,17.8135779 21.8974403,16.3476395 L29.6062354,1.66778829 C30.3749203,0.203982509 31.6241403,0.201849865 32.393945,1.66778829 L40.1027402,16.3476395 C40.871425,17.8114453 42.830388,19.1621478 44.4757051,19.3597547 L59.6377687,21.1807578 L46.2867363,32.4016462 C45.0072016,33.4770323 44.102548,35.676244 44.2483465,37.3286741 L44.8647899,44.3152327 C45.0106181,45.9679998 43.9685632,46.636376 42.5373616,45.8088455 L33.5915099,40.6362932 C32.1563003,39.8064453 29.8325004,39.7996042 28.3922053,40.6158372 L19.479284,45.6668993 C18.0396295,46.4827692 16.9916307,45.8031479 17.1399438,44.1481118 L17.7482514,37.3599677 C17.8963834,35.7069528 16.9859848,33.4954545 15.7144148,32.4249625 L2.35876955,21.1812947 Z" id="Shape-7" fill="#F9FFBF"></path>
                </g>
            </g>
        </g>
    </g>
</svg>