<svg width="100%" viewBox="0 0 60 60" version="1.1" xmlns="http://www.w3.org/2000/svg" >
    <g stroke="none" stroke-width="1" fill="none" fill-rule="evenodd">
        <g transform="translate(-30.000000, -60.000000)" fill="#FFFFFF">
            <path d="M89.4830859,87.2005078 C89.4830859,87.2005078 88.3937109,86.7908203 85.2420703,86.5000781 C81.3884766,86.1438281 80.2259766,84.6994922 78.9441797,82.9013672 L78.9183984,82.9013672 C78.7587891,82.4739844 78.5878125,82.0519922 78.3996094,81.6385547 L78.4144922,81.6236719 C78.0486328,79.4463281 77.8505859,77.6022656 80.3237109,74.6253516 C82.3451953,72.1918359 82.8274219,71.1310547 82.8274219,71.1310547 C82.3530469,69.9271875 81.2124609,68.7868359 81.2124609,68.7868359 C81.2124609,68.7868359 80.0715234,67.6461328 78.8682422,67.1724609 C78.8682422,67.1724609 77.8074609,67.6533984 75.3739453,69.6757031 C72.3970312,72.1485938 70.5528516,71.9499609 68.375625,71.5849219 L68.360625,71.5996875 C67.9476562,71.4116016 67.52625,71.2413281 67.0979297,71.0808984 L67.0979297,71.0558203 C65.2996875,69.7744922 63.8554687,68.6107031 63.4991016,64.7571094 C63.2078906,61.6069922 62.7987891,60.5162109 62.7987891,60.5162109 C61.6117969,60 59.9992969,60 59.9992969,60 C59.9992969,60 58.3860937,60 57.2000391,60.5162109 C57.2000391,60.5162109 56.7901172,61.6071094 56.499375,64.7571094 C56.1430078,68.6107031 54.6979687,69.7744922 52.9006641,71.0558203 L52.9006641,71.0808984 C52.4732812,71.2413281 52.0510547,71.4114844 51.6378516,71.5989844 L51.6235547,71.5849219 C49.4463281,71.9513672 47.6021484,72.1491797 44.6252344,69.6765234 C42.1919531,67.6549219 41.1297656,67.1730469 41.1297656,67.1730469 C39.9258984,67.6480078 38.7869531,68.7868359 38.7869531,68.7868359 C38.7869531,68.7868359 37.6461328,69.9285938 37.1724609,71.1316406 C37.1724609,71.1316406 37.6528125,72.1925391 39.6758203,74.6253516 C42.1484766,77.6021484 41.9479687,79.4463281 41.5841016,81.6236719 L41.5991016,81.6385547 C41.4107812,82.0519922 41.240625,82.4739844 41.0800781,82.9013672 L41.0551172,82.9013672 C39.7746094,84.7001953 38.6107031,86.1438281 34.7573437,86.5000781 C31.6069922,86.7914062 30.5149219,87.2019141 30.5149219,87.2019141 C30,88.3891406 30,90 30,90 C30,90 30,91.6137891 30.5162109,92.7992578 C30.5162109,92.7992578 31.6057031,93.2097656 34.7566406,93.4998047 C38.6101172,93.8561719 39.7726172,95.3021484 41.0551172,97.0986328 L41.0801953,97.0986328 C41.2407422,97.5269531 41.4107812,97.9483594 41.5992187,98.3614453 L41.5842187,98.3763281 C41.9507812,100.553906 42.1484766,102.397734 39.6759375,105.374648 C37.6542187,107.808047 37.171875,108.870234 37.171875,108.870234 C37.6475391,110.073516 38.7861328,111.213164 38.7861328,111.213164 C38.7861328,111.213164 39.9277734,112.354102 41.1310547,112.826953 C41.1310547,112.826953 42.19125,112.347188 44.6247656,110.32418 C47.6015625,107.851523 49.4464453,108.052031 51.6229687,108.41543 L51.6379687,108.40043 C52.0511719,108.588516 52.4733984,108.758086 52.9007812,108.919219 L52.9007812,108.945 C54.6994922,110.225625 56.143125,111.389414 56.4994922,115.243008 C56.7907031,118.393125 57.200625,119.485195 57.200625,119.485195 C58.3883203,120 59.9992969,120 59.9992969,120 C59.9992969,120 61.6130859,120 62.7987891,119.483789 C62.7987891,119.483789 63.2094141,118.39418 63.4991016,115.242891 C63.8554687,111.389297 65.3013281,110.22668 67.0979297,108.944883 L67.0979297,108.919102 C67.52625,108.757969 67.9476562,108.588516 68.360625,108.400312 L68.375625,108.415312 C70.5528516,108.049453 72.3969141,107.851406 75.3739453,110.324062 C77.8075781,112.345898 78.8698828,112.828242 78.8698828,112.828242 C80.0730469,112.352461 81.2124609,111.213164 81.2124609,111.213164 C81.2124609,111.213164 82.3530469,110.072227 82.8274219,108.868945 C82.8274219,108.868945 82.3464844,107.80793 80.3237109,105.374648 C77.8505859,102.397852 78.0499219,100.553906 78.4144922,98.3763281 L78.3996094,98.3614453 C78.5876953,97.9483594 78.7586719,97.5269531 78.9183984,97.0986328 L78.9441797,97.0986328 C80.2248047,95.3008594 81.3884766,93.8561719 85.2420703,93.4998047 C88.3921875,93.2085937 89.484375,92.7992578 89.484375,92.7992578 C89.9994141,91.6125 89.9994141,90 89.9994141,90 C89.9994141,90 89.9992969,88.3862109 89.4830859,87.2005078 L89.4830859,87.2005078 Z M59.9992969,104.030508 C52.2502734,104.030508 45.9686719,97.7490234 45.9686719,90 C45.9686719,82.2509766 52.2502734,75.9694922 59.9992969,75.9694922 C67.7482031,75.9694922 74.0298047,82.2509766 74.0298047,90 C74.0298047,97.7490234 67.7482031,104.030508 59.9992969,104.030508 L59.9992969,104.030508 Z"></path>
        </g>
    </g>
</svg>