<svg width="100%" viewBox="0 0 12 12" version="1.1" xmlns="http://www.w3.org/2000/svg">
    <g stroke="none" stroke-width="1" fill="none" fill-rule="evenodd">
        <g transform="translate(-266.000000, -522.000000)" fill="#4CD398">
            <g transform="translate(266.000000, 522.000000)">
                <path d="M5.14196111,0.495388985 C5.6158429,0.221793203 6.39055596,0.22548759 6.85803889,0.495388985 L10.3381135,2.50461102 C10.8119953,2.7782068 11.1961524,3.45097518 11.1961524,3.99077797 L11.1961524,8.00922203 C11.1961524,8.55641359 10.8055965,9.22548759 10.3381135,9.49538898 L6.85803889,11.504611 C6.3841571,11.7782068 5.60944404,11.7745124 5.14196111,11.504611 L1.66188647,9.49538898 C1.18800467,9.2217932 0.803847577,8.54902482 0.803847577,8.00922203 L0.803847577,3.99077797 C0.803847577,3.44358641 1.19440354,2.77451241 1.66188647,2.50461102 L5.14196111,0.495388985 Z M5.13055434,1.56378797 C5.6107358,1.28062609 6.38724235,1.27943406 6.86944524,1.56378797 L9.32670655,3.0128292 C9.80688801,3.29599108 10.196152,3.98225119 10.196152,4.52702739 L10.196152,7.47297308 C10.196152,8.02607977 9.80890944,8.70281736 9.32670655,8.98717127 L6.86944524,10.4362125 C6.38926377,10.7193744 5.61275723,10.7205664 5.13055434,10.4362125 L2.67329303,8.98717127 C2.19311156,8.70400939 1.80384758,8.01774928 1.80384758,7.47297308 L1.80384758,4.52702739 C1.80384758,3.9739207 2.19109014,3.29718311 2.67329303,3.0128292 L5.13055434,1.56378797 Z" id="Polygon-335"></path>
                <path d="M6,1.00247329 L6,10.9975267 C6,11.5511774 5.60944404,11.7745124 5.14196111,11.504611 L1.66188647,9.49538898 C1.18800467,9.2217932 0.803847577,8.54902482 0.803847577,8.00922203 L0.803847577,3.99077797 C0.803847577,3.44358641 1.19440354,2.77451241 1.66188647,2.50461102 L5.14196111,0.495388985 C5.6158429,0.221793203 6,0.455760956 6,1.00247329 Z" id="Polygon-339"></path>
            </g>
        </g>
    </g>
</svg>