<svg width="100%" viewBox="0 0 12 12" version="1.1" xmlns="http://www.w3.org/2000/svg">
    <g stroke="none" stroke-width="1" fill="none" fill-rule="evenodd">
        <g transform="translate(-283.000000, -522.000000)" fill="#4CD398">
            <g transform="translate(283.000000, 522.000000)">
                <path d="M5.14196111,0.495388985 C5.6158429,0.221793203 6.39055596,0.22548759 6.85803889,0.495388985 L10.3381135,2.50461102 C10.8119953,2.7782068 11.1961524,3.45097518 11.1961524,3.99077797 L11.1961524,8.00922203 C11.1961524,8.55641359 10.8055965,9.22548759 10.3381135,9.49538898 L6.85803889,11.504611 C6.3841571,11.7782068 5.60944404,11.7745124 5.14196111,11.504611 L1.66188647,9.49538898 C1.18800467,9.2217932 0.803847577,8.54902482 0.803847577,8.00922203 L0.803847577,3.99077797 C0.803847577,3.44358641 1.19440354,2.77451241 1.66188647,2.50461102 L5.14196111,0.495388985 Z M5.13414131,1.49990375 C5.61234186,1.22381453 6.38426989,1.22185832 6.86585869,1.49990375 L9.46426833,3.00009625 C9.94246888,3.27618547 10.330127,3.94371665 10.330127,4.49980749 L10.330127,7.50019251 C10.330127,8.05237094 9.94585713,8.72185832 9.46426833,8.99990375 L6.86585869,10.5000963 C6.38765814,10.7761855 5.61573011,10.7781417 5.13414131,10.5000963 L2.53573167,8.99990375 C2.05753112,8.72381453 1.66987298,8.05628335 1.66987298,7.50019251 L1.66987298,4.49980749 C1.66987298,3.94762906 2.05414287,3.27814168 2.53573167,3.00009625 L5.13414131,1.49990375 Z"></path>
            </g>
        </g>
    </g>
</svg>