<svg width="100%" viewBox="0 0 60 60" version="1.1" xmlns="http://www.w3.org/2000/svg" >
    <g id="Page-1" stroke="none" stroke-width="1" fill="none" fill-rule="evenodd">
        <g id="вход" transform="translate(-80.000000, -520.000000)" fill="#FFFFFF">
            <g id="Rectangle-376-+-Войти-через-Vkontakt-2" transform="translate(60.000000, 500.000000)">
                <g id="Oval-188" transform="translate(20.000000, 20.000000)">
                    <path d="M30,60 C46.5685425,60 60,46.5685425 60,30 C60,13.4314575 46.5685425,0 30,0 C13.4314575,0 0,13.4314575 0,30 C0,46.5685425 13.4314575,60 30,60 Z M30,57 C44.9116882,57 57,44.9116882 57,30 C57,15.0883118 44.9116882,3 30,3 C15.0883118,3 3,15.0883118 3,30 C3,44.9116882 15.0883118,57 30,57 Z"></path>
                    <path d="M30.0205769,39.9953333 C31.0205769,39.9953333 31.0205769,38.5543333 31.0205769,37.9953333 C31.0205769,36.9953333 32.0205769,35.9953333 33.0205769,35.9953333 C34.0205769,35.9953333 35.7355769,37.7103333 37.0205769,38.9953333 C38.0205769,39.9953333 38.0205769,39.9953333 39.0205769,39.9953333 L42.0205769,39.9953333 C42.0205769,39.9953333 44.0205769,39.9193333 44.0205769,37.9953333 C44.0205769,37.3703333 43.3355769,36.3103333 41.0205769,33.9953333 C39.0205769,31.9953333 37.9945769,33.0283333 41.0205769,28.9953333 C42.8635769,26.5393333 44.2045769,24.3143333 43.9745769,23.6723333 C43.7545769,23.0593333 38.6285769,22.0833333 38.0205769,22.9953333 C36.0205769,25.9953333 35.6535769,26.7303333 35.0205769,27.9953333 C34.0205769,29.9953333 33.9215769,30.9953333 33.0205769,30.9953333 C32.1115769,30.9953333 32.0205769,29.0543333 32.0205769,27.9953333 C32.0205769,24.6893333 32.4995769,22.3513333 31.0205769,21.9953333 L28.0205769,21.9953333 C26.4105769,21.9953333 25.0205769,22.9953333 25.0205769,22.9953333 C25.0205769,22.9953333 23.7795769,23.9633333 24.0205769,23.9953333 C24.3185769,24.0353333 26.0205769,23.5813333 26.0205769,24.9953333 L26.0205769,26.9953333 C26.0205769,26.9953333 26.0295769,30.9953333 25.0205769,30.9953333 C24.0205769,30.9953333 22.0205769,26.9953333 20.0205769,23.9953333 C19.2355769,22.8183333 19.0205769,22.9953333 18.0205769,22.9953333 C16.9485769,22.9953333 16.0215769,23.0373333 15.0205769,23.0373333 C14.0205769,23.0373333 13.8925769,23.6743333 14.0205769,23.9953333 C16.0205769,28.9953333 17.4575769,32.1353333 21.2575769,36.0913333 C24.7425769,39.7203333 27.0705769,39.9133333 29.0205769,39.9953333 C29.5205769,40.0163333 29.0205769,39.9953333 30.0205769,39.9953333 L30.0205769,39.9953333 Z" id="VK"></path>
                </g>
            </g>
        </g>
    </g>
</svg>